{"title":"Royal Raw Auditions 1","uid":9366672,"size":1721771677,"categoryP":"porn","categoryS":"movies","magnet":"?xt=urn:btih:e15d748ce28e36e91b1dd9f9b4fba9c82d2adbee&amp;dn=Royal+Raw+Auditions+1&amp;tr=udp%3A%2F%2Ftracker.openbittorrent.com%3A80&amp;tr=udp%3A%2F%2Fopen.demonii.com%3A1337&amp;tr=udp%3A%2F%2Ftracker.coppersurfer.tk%3A6969&amp;tr=udp%3A%2F%2Fexodus.desync.com%3A6969","seeders":0,"leechers":0,"uploader":null,"files":-1,"time":1387435984,"description":" &lt;a href=&quot;http://postimg.org/image/ebui8lhlb/&quot; rel=&quot;nofollow&quot; target=&quot;_NEW&quot;&gt;http://postimg.org/image/ebui8lhlb/&lt;/a&gt;\n\n &lt;a href=&quot;\nhttp://postimg.org/image/nkwoipqhb/&quot; rel=&quot;nofollow&quot; target=&quot;_NEW&quot;&gt;\nhttp://postimg.org/image/nkwoipqhb/&lt;/a&gt;\n\n\nRoyal Raw Auditions: Harry introduces models for their first time in front of the camera. No prim and proper here, these British Boys get down and dirty. Don't let the innocent looks fool you!brbr Harry's upper class accent gets him exactly where he wants, a stiff uncut cock up his ass. Then his mate shoots his hard 8' rod all over his face. And yes he eats it all up! brbr The boys tease each other in front of the camera with their large uncut cocks. With Dan's thick Birmingham accent, he tells his mates he wants more in both holes. They continue to fill him up till they both explode.brbr See these first time models pleasure themselves with each other for an erotic experience you'll never forget! 5 Action-Packed Scenes! \n\n\nRATING\t\nSTUDIO\tPuppy Productions\nRELEASED\t03/2007\nSKU\t101137\nCATEGORY\tBareback, European, Twinks\nALERTS\tTitle in 4 Wishlists\n\n\nFormat                                   : MPEG-4\nFormat profile                           : Base Media / Version 2\nCodec ID                                 : mp42\nFile size                                : 1.60 GiB\nDuration                                 : 1h 55mn\nOverall bit rate mode                    : Variable\nOverall bit rate                         : 1 989 Kbps\nEncoded date                             : UTC 2013-10-29 08:28:02\nTagged date                              : UTC 2013-10-29 10:09:12\nWriting application                      : HandBrake 0.9.9 2013052900\n\nVideo\nID                                       : 1\nFormat                                   : AVC\nFormat/Info                              : Advanced Video Codec\nFormat profile                           : &lt;a class=&quot;__cf_email__&quot; href=&quot;/cdn-cgi/l/email-protection&quot; data-cfemail=&quot;3c74555b547c7009120e&quot;&gt;[email&amp;#160;protected]&lt;/a&gt;&lt;script data-cfhash='f9e31' type=&quot;text/javascript&quot;&gt;\n/* &lt;![CDATA[ */!function(){try{var t=&quot;currentScript&quot;in document?document.currentScript:function(){for(var t=document.getElementsByTagName(&quot;script&quot;),e=t.length;e--;)if(t[e].getAttribute(&quot;data-cfhash&quot;))return t[e]}();if(t&amp;&amp;t.previousSibling){var e,r,n,i,c=t.previousSibling,a=c.getAttribute(&quot;data-cfemail&quot;);if(a){for(e=&quot;&quot;,r=parseInt(a.substr(0,2),16),n=2;a.length-n;n+=2)i=parseInt(a.substr(n,2),16)^r,e+=String.fromCharCode(i);e=document.createTextNode(e),c.parentNode.replaceChild(e,c)}t.parentNode.removeChild(t);}}catch(u){}}()/* ]]&gt; */&lt;/script&gt;\nFormat settings, CABAC                   : Yes\nFormat settings, ReFrames                : 5 frames\nCodec ID                                 : avc1\nCodec ID/Info                            : Advanced Video Coding\nDuration                                 : 1h 55mn\nBit rate                                 : 1 826 Kbps\nWidth                                    : 528 pixels\nHeight                                   : 576 pixels\nDisplay aspect ratio                     : 4:3\nFrame rate mode                          : Variable\nFrame rate                               : 25.000 fps\nMinimum frame rate                       : 14.286 fps\nMaximum frame rate                       : 25.000 fps\nColor space                              : YUV\nChroma subsampling                       : 4:2:0\nBit depth                                : 8 bits\nScan type                                : Progressive\nBits/(Pixel*Frame)                       : 0.240\nStream size                              : 1.47 GiB (92%)\nWriting library                          : x264 core 130 r2273 b3065e6\nEncoding settings                        : cabac=1 / ref=5 / deblock=1:0:0 / \nEncoded date                             : UTC 2013-10-29 08:28:02\nTagged date                              : UTC 2013-10-29 10:09:12\nColor primaries                          : BT.601 PAL\nTransfer characteristics                 : BT.709\nMatrix coefficients                      : BT.601\n\nAudio\nID                                       : 2\nFormat                                   : AAC\nFormat/Info                              : Advanced Audio Codec\nFormat profile                           : LC\nCodec ID                                 : 40\nDuration                                 : 1h 55mn\nBit rate mode                            : Variable\nBit rate                                 : 159 Kbps\nMaximum bit rate                         : 249 Kbps\nChannel(s)                               : 2 channels\nChannel positions                        : Front: L R\nSampling rate                            : 48.0 KHz\nCompression mode                         : Lossy\nStream size                              : 132 MiB (8%)\nLanguage                                 : English\nEncoded date                             : UTC 2013-10-29 08:28:02\nTagged date                              : UTC 2013-10-29 10:09:11\n","torrent":{"xt":"urn:btih:e15d748ce28e36e91b1dd9f9b4fba9c82d2adbee","amp;dn":"Royal+Raw+Auditions+1","amp;tr":["udp%3A%2F%2Ftracker.openbittorrent.com%3A80","udp%3A%2F%2Fopen.demonii.com%3A1337","udp%3A%2F%2Ftracker.coppersurfer.tk%3A6969","udp%3A%2F%2Fexodus.desync.com%3A6969"],"infoHash":"e15d748ce28e36e91b1dd9f9b4fba9c82d2adbee","infoHashBuffer":{"type":"Buffer","data":[225,93,116,140,226,142,54,233,27,29,217,249,180,251,169,200,45,42,219,238]},"announce":[],"urlList":[]}}